{
	"asset":{
		"generator":"Khronos glTF Blender I/O v4.4.56",
		"version":"2.0"
	},
	"scene":0,
	"scenes":[
		{
			"name":"Scene",
			"nodes":[
				0,
				1,
				2
			]
		}
	],
	"nodes":[
		{
			"mesh":0,
			"name":"Paddle",
			"translation":[
				-9.5,
				5.221039772033691,
				0
			]
		},
		{
			"mesh":1,
			"name":"Paddle.001",
			"translation":[
				9.5,
				-1.2746354341506958,
				0
			]
		},
		{
			"mesh":2,
			"name":"Paddle.002",
			"translation":[
				-8.746076583862305,
				5.30415678024292,
				0
			]
		}
	],
	"materials":[
		{
			"doubleSided":true,
			"name":"Material",
			"pbrMetallicRoughness":{
				"baseColorTexture":{
					"index":0
				},
				"metallicFactor":0,
				"roughnessFactor":0.5
			}
		}
	],
	"meshes":[
		{
			"name":"Cube.001",
			"primitives":[
				{
					"attributes":{
						"POSITION":0,
						"NORMAL":1,
						"TEXCOORD_0":2
					},
					"indices":3,
					"material":0
				}
			]
		},
		{
			"name":"Cube.002",
			"primitives":[
				{
					"attributes":{
						"POSITION":4,
						"NORMAL":5,
						"TEXCOORD_0":6
					},
					"indices":3,
					"material":0
				}
			]
		},
		{
			"name":"Cube.003",
			"primitives":[
				{
					"attributes":{
						"POSITION":7,
						"NORMAL":8,
						"TEXCOORD_0":9
					},
					"indices":3,
					"material":0
				}
			]
		}
	],
	"textures":[
		{
			"sampler":0,
			"source":0
		}
	],
	"images":[
		{
			"mimeType":"image/png",
			"name":"banner",
			"uri":"banner.png"
		}
	],
	"accessors":[
		{
			"bufferView":0,
			"componentType":5126,
			"count":24,
			"max":[
				0.3735097646713257,
				1.3716143369674683,
				0.3735097646713257
			],
			"min":[
				-0.3735097646713257,
				-1.3716143369674683,
				-0.3735097646713257
			],
			"type":"VEC3"
		},
		{
			"bufferView":1,
			"componentType":5126,
			"count":24,
			"type":"VEC3"
		},
		{
			"bufferView":2,
			"componentType":5126,
			"count":24,
			"type":"VEC2"
		},
		{
			"bufferView":3,
			"componentType":5123,
			"count":36,
			"type":"SCALAR"
		},
		{
			"bufferView":4,
			"componentType":5126,
			"count":24,
			"max":[
				0.3735097646713257,
				1.3716143369674683,
				0.3735097646713257
			],
			"min":[
				-0.3735097646713257,
				-1.3716143369674683,
				-0.3735097646713257
			],
			"type":"VEC3"
		},
		{
			"bufferView":5,
			"componentType":5126,
			"count":24,
			"type":"VEC3"
		},
		{
			"bufferView":6,
			"componentType":5126,
			"count":24,
			"type":"VEC2"
		},
		{
			"bufferView":7,
			"componentType":5126,
			"count":24,
			"max":[
				0.3735097646713257,
				0.41455626487731934,
				0.3735097646713257
			],
			"min":[
				-0.3735097646713257,
				-0.41455626487731934,
				-0.3735097646713257
			],
			"type":"VEC3"
		},
		{
			"bufferView":8,
			"componentType":5126,
			"count":24,
			"type":"VEC3"
		},
		{
			"bufferView":9,
			"componentType":5126,
			"count":24,
			"type":"VEC2"
		}
	],
	"bufferViews":[
		{
			"buffer":0,
			"byteLength":288,
			"byteOffset":0,
			"target":34962
		},
		{
			"buffer":0,
			"byteLength":288,
			"byteOffset":288,
			"target":34962
		},
		{
			"buffer":0,
			"byteLength":192,
			"byteOffset":576,
			"target":34962
		},
		{
			"buffer":0,
			"byteLength":72,
			"byteOffset":768,
			"target":34963
		},
		{
			"buffer":0,
			"byteLength":288,
			"byteOffset":840,
			"target":34962
		},
		{
			"buffer":0,
			"byteLength":288,
			"byteOffset":1128,
			"target":34962
		},
		{
			"buffer":0,
			"byteLength":192,
			"byteOffset":1416,
			"target":34962
		},
		{
			"buffer":0,
			"byteLength":288,
			"byteOffset":1608,
			"target":34962
		},
		{
			"buffer":0,
			"byteLength":288,
			"byteOffset":1896,
			"target":34962
		},
		{
			"buffer":0,
			"byteLength":192,
			"byteOffset":2184,
			"target":34962
		}
	],
	"samplers":[
		{
			"magFilter":9729,
			"minFilter":9987
		}
	],
	"buffers":[
		{
			"byteLength":2376,
			"uri":"banner.bin"
		}
	]
}
